<svg width="347" height="59" viewBox="0 0 347 59" fill="none" xmlns="http://www.w3.org/2000/svg">
<g filter="url(#filter0_n_2033_37)">
<path d="M0 20C0 8.95431 8.9543 0 20 0H327C338.046 0 347 8.95431 347 20V59H0V20Z" fill="white"/>
<path d="M119.703 41L118.141 35.5625H110.266L108.688 41H103.797L111.219 18.0625H117.141L124.594 41H119.703ZM117.016 31.5L115.547 26.5C115.484 26.3125 115.391 26.0052 115.266 25.5781C115.141 25.151 115.005 24.6823 114.859 24.1719C114.724 23.651 114.594 23.1302 114.469 22.6094C114.344 22.0885 114.255 21.6458 114.203 21.2812C114.161 21.5104 114.104 21.7812 114.031 22.0938C113.969 22.4062 113.891 22.7396 113.797 23.0938C113.714 23.4375 113.625 23.7865 113.531 24.1406C113.438 24.4948 113.349 24.8281 113.266 25.1406C113.182 25.4531 113.104 25.7292 113.031 25.9688C112.969 26.2083 112.922 26.3854 112.891 26.5L111.438 31.5H117.016ZM136.422 23.2031C137.318 23.2031 138.135 23.3958 138.875 23.7812C139.615 24.1667 140.25 24.7396 140.781 25.5C141.312 26.2604 141.724 27.2031 142.016 28.3281C142.318 29.4531 142.469 30.7552 142.469 32.2344C142.469 33.7344 142.318 35.0521 142.016 36.1875C141.724 37.3125 141.307 38.2552 140.766 39.0156C140.224 39.776 139.573 40.349 138.812 40.7344C138.052 41.1198 137.214 41.3125 136.297 41.3125C135.714 41.3125 135.193 41.25 134.734 41.125C134.286 41 133.885 40.8333 133.531 40.625C133.177 40.4167 132.865 40.1823 132.594 39.9219C132.333 39.651 132.094 39.3698 131.875 39.0781H131.547L130.75 41H127.109V16.6875H131.875V22.3438C131.875 22.6875 131.865 23.0625 131.844 23.4688C131.823 23.8646 131.802 24.2344 131.781 24.5781C131.75 24.9844 131.719 25.3906 131.688 25.7969H131.875C132.094 25.4323 132.344 25.0938 132.625 24.7812C132.906 24.4688 133.229 24.1979 133.594 23.9688C133.969 23.7292 134.391 23.5417 134.859 23.4062C135.328 23.2708 135.849 23.2031 136.422 23.2031ZM134.812 27.0156C134.281 27.0156 133.828 27.1146 133.453 27.3125C133.089 27.5 132.792 27.7865 132.562 28.1719C132.333 28.5573 132.167 29.0469 132.062 29.6406C131.958 30.224 131.896 30.9062 131.875 31.6875V32.2031C131.875 33.0469 131.922 33.7969 132.016 34.4531C132.12 35.1094 132.286 35.6615 132.516 36.1094C132.745 36.5469 133.047 36.8802 133.422 37.1094C133.807 37.3385 134.281 37.4531 134.844 37.4531C135.792 37.4531 136.484 37.0052 136.922 36.1094C137.37 35.2031 137.594 33.8906 137.594 32.1719C137.594 30.4531 137.37 29.1667 136.922 28.3125C136.484 27.4479 135.781 27.0156 134.812 27.0156ZM150.547 32.2344C150.547 33.974 150.792 35.2865 151.281 36.1719C151.771 37.0469 152.568 37.4844 153.672 37.4844C154.766 37.4844 155.557 37.0417 156.047 36.1562C156.536 35.2708 156.781 33.9635 156.781 32.2344C156.781 30.4948 156.536 29.1979 156.047 28.3438C155.557 27.4792 154.755 27.0469 153.641 27.0469C152.547 27.0469 151.755 27.4792 151.266 28.3438C150.786 29.1979 150.547 30.4948 150.547 32.2344ZM161.641 32.2344C161.641 33.6927 161.453 34.9844 161.078 36.1094C160.714 37.2344 160.182 38.1823 159.484 38.9531C158.797 39.724 157.953 40.3125 156.953 40.7188C155.964 41.1146 154.849 41.3125 153.609 41.3125C152.453 41.3125 151.391 41.1146 150.422 40.7188C149.453 40.3125 148.615 39.724 147.906 38.9531C147.208 38.1823 146.661 37.2344 146.266 36.1094C145.87 34.9844 145.672 33.6927 145.672 32.2344C145.672 30.7865 145.854 29.5 146.219 28.375C146.594 27.25 147.125 26.3073 147.812 25.5469C148.51 24.776 149.354 24.1927 150.344 23.7969C151.333 23.401 152.453 23.2031 153.703 23.2031C154.859 23.2031 155.922 23.401 156.891 23.7969C157.859 24.1927 158.693 24.776 159.391 25.5469C160.099 26.3073 160.651 27.25 161.047 28.375C161.443 29.5 161.641 30.7865 161.641 32.2344ZM177.188 41L176.547 38.7656H176.297C176.036 39.2135 175.724 39.599 175.359 39.9219C175.005 40.2344 174.615 40.4948 174.188 40.7031C173.76 40.9115 173.307 41.0625 172.828 41.1562C172.349 41.2604 171.859 41.3125 171.359 41.3125C170.505 41.3125 169.729 41.1927 169.031 40.9531C168.333 40.7031 167.734 40.3177 167.234 39.7969C166.734 39.276 166.349 38.6146 166.078 37.8125C165.807 37.0104 165.672 36.0469 165.672 34.9219V23.5312H170.438V33.7344C170.438 34.9948 170.625 35.9427 171 36.5781C171.385 37.2031 171.995 37.5156 172.828 37.5156C173.453 37.5156 173.974 37.3906 174.391 37.1406C174.807 36.8906 175.135 36.5208 175.375 36.0312C175.625 35.5417 175.802 34.9375 175.906 34.2188C176.01 33.5 176.062 32.6771 176.062 31.75V23.5312H180.828V41H177.188ZM192.922 37.5156C193.391 37.5156 193.833 37.4635 194.25 37.3594C194.677 37.2552 195.109 37.125 195.547 36.9688V40.5156C195.099 40.7448 194.542 40.9323 193.875 41.0781C193.219 41.2344 192.5 41.3125 191.719 41.3125C190.958 41.3125 190.25 41.224 189.594 41.0469C188.938 40.8698 188.37 40.5625 187.891 40.125C187.411 39.6771 187.031 39.0833 186.75 38.3438C186.479 37.5938 186.344 36.6562 186.344 35.5312V27.1094H184.062V25.0938L186.688 23.5L188.062 19.8125H191.109V23.5312H195.359V27.1094H191.109V35.5312C191.109 36.2083 191.276 36.7083 191.609 37.0312C191.943 37.3542 192.38 37.5156 192.922 37.5156ZM225.078 18.1562V32.9375C225.078 34.125 224.896 35.2292 224.531 36.25C224.177 37.2708 223.63 38.1562 222.891 38.9062C222.161 39.6562 221.245 40.2448 220.141 40.6719C219.036 41.099 217.74 41.3125 216.25 41.3125C214.844 41.3125 213.599 41.1146 212.516 40.7188C211.443 40.3125 210.542 39.7396 209.812 39C209.094 38.2604 208.547 37.375 208.172 36.3438C207.797 35.3021 207.609 34.1458 207.609 32.875V18.1562H212.438V32.5156C212.438 33.3594 212.521 34.0833 212.688 34.6875C212.854 35.2812 213.099 35.7708 213.422 36.1562C213.755 36.5312 214.167 36.8073 214.656 36.9844C215.146 37.1615 215.719 37.25 216.375 37.25C217.74 37.25 218.724 36.8542 219.328 36.0625C219.943 35.2708 220.25 34.0781 220.25 32.4844V18.1562H225.078ZM241.938 35.8125C241.938 36.7292 241.771 37.5312 241.438 38.2188C241.104 38.9062 240.63 39.4792 240.016 39.9375C239.401 40.3958 238.656 40.7396 237.781 40.9688C236.906 41.1979 235.927 41.3125 234.844 41.3125C234.271 41.3125 233.74 41.2917 233.25 41.25C232.76 41.2188 232.297 41.1615 231.859 41.0781C231.422 40.9948 231 40.8906 230.594 40.7656C230.188 40.6406 229.776 40.4844 229.359 40.2969V36.3594C229.797 36.5781 230.255 36.776 230.734 36.9531C231.224 37.1302 231.708 37.2865 232.188 37.4219C232.667 37.5469 233.13 37.6458 233.578 37.7188C234.036 37.7917 234.458 37.8281 234.844 37.8281C235.271 37.8281 235.635 37.7917 235.938 37.7188C236.24 37.6354 236.484 37.526 236.672 37.3906C236.87 37.2448 237.01 37.0781 237.094 36.8906C237.188 36.6927 237.234 36.4844 237.234 36.2656C237.234 36.0469 237.198 35.8542 237.125 35.6875C237.062 35.5104 236.911 35.3281 236.672 35.1406C236.432 34.9427 236.078 34.724 235.609 34.4844C235.151 34.2344 234.531 33.9323 233.75 33.5781C232.99 33.2344 232.328 32.8958 231.766 32.5625C231.214 32.2188 230.755 31.8385 230.391 31.4219C230.036 31.0052 229.771 30.5312 229.594 30C229.417 29.4583 229.328 28.8177 229.328 28.0781C229.328 27.2656 229.484 26.5573 229.797 25.9531C230.109 25.3385 230.552 24.8281 231.125 24.4219C231.698 24.0156 232.385 23.7135 233.188 23.5156C234 23.3073 234.901 23.2031 235.891 23.2031C236.932 23.2031 237.922 23.3229 238.859 23.5625C239.797 23.8021 240.76 24.1615 241.75 24.6406L240.312 28.0156C239.521 27.6406 238.766 27.3333 238.047 27.0938C237.328 26.8542 236.609 26.7344 235.891 26.7344C235.245 26.7344 234.776 26.849 234.484 27.0781C234.203 27.3073 234.062 27.6198 234.062 28.0156C234.062 28.224 234.099 28.4115 234.172 28.5781C234.245 28.7344 234.391 28.901 234.609 29.0781C234.828 29.2448 235.135 29.4323 235.531 29.6406C235.927 29.8385 236.443 30.0833 237.078 30.375C237.818 30.6979 238.484 31.0208 239.078 31.3438C239.672 31.6562 240.182 32.0156 240.609 32.4219C241.036 32.8281 241.365 33.3021 241.594 33.8438C241.823 34.3854 241.938 35.0417 241.938 35.8125Z" fill="#212121"/>
</g>
<defs>
<filter id="filter0_n_2033_37" x="0" y="0" width="347" height="59" filterUnits="userSpaceOnUse" color-interpolation-filters="sRGB">
<feFlood flood-opacity="0" result="BackgroundImageFix"/>
<feBlend mode="normal" in="SourceGraphic" in2="BackgroundImageFix" result="shape"/>
<feTurbulence type="fractalNoise" baseFrequency="1 1" stitchTiles="stitch" numOctaves="3" result="noise" seed="6910" />
<feColorMatrix in="noise" type="luminanceToAlpha" result="alphaNoise" />
<feComponentTransfer in="alphaNoise" result="coloredNoise1">
<feFuncA type="discrete" tableValues="0 0 0 0 0 0 0 0 0 0 0 0 1 1 1 1 1 1 1 1 1 1 1 1 1 1 1 1 1 1 1 1 1 1 1 1 1 1 0 0 0 0 0 0 0 0 0 0 0 0 0 0 0 0 0 0 0 0 0 0 0 0 0 0 0 0 0 0 0 0 0 0 0 0 0 0 0 0 0 0 0 0 0 0 0 0 0 0 0 0 0 0 0 0 0 0 0 0 0 0 "/>
</feComponentTransfer>
<feComposite operator="in" in2="shape" in="coloredNoise1" result="noise1Clipped" />
<feFlood flood-color="rgba(0, 0, 0, 0.25)" result="color1Flood" />
<feComposite operator="in" in2="noise1Clipped" in="color1Flood" result="color1" />
<feMerge result="effect1_noise_2033_37">
<feMergeNode in="shape" />
<feMergeNode in="color1" />
</feMerge>
</filter>
</defs>
</svg>
